<svg width="3437" height="3437" xmlns="http://www.w3.org/2000/svg" xmlns:xlink="http://www.w3.org/1999/xlink" xml:space="preserve" overflow="hidden"><defs><clipPath id="clip0"><path d="M-640.567 393.677 2158.27-243.582 2795.53 2555.26-3.30774 3192.52Z" fill-rule="evenodd" clip-rule="evenodd"/></clipPath><clipPath id="clip1"><path d="M-640.567 393.677 2158.27-243.582 2795.53 2555.26-3.30774 3192.52Z" fill-rule="evenodd" clip-rule="evenodd"/></clipPath><clipPath id="clip2"><path d="M-640.567 393.677 2158.27-243.582 2795.53 2555.26-3.30774 3192.52Z" fill-rule="evenodd" clip-rule="evenodd"/></clipPath></defs><g transform="translate(641 244)"><g clip-path="url(#clip0)"><g clip-path="url(#clip1)"><g clip-path="url(#clip2)"><path d="M873.616 722.751C1540.84 636.254 2013.15 986.661 2279.44 2299.87L848.919 2625.58C721.467 2065.81 1378.83 2079.69 1049.1 1206.16" fill="#6CADD5" fill-rule="evenodd"/><path d="M1111.3 1192C1176.14 1367.61 870.478 1728.98 741.18 1865.06 582.913 2031.93 627.246 2174.93 486.843 2184.65 408.722 2140.94 531.489 1975.61 444.359 1998.06 382.162 2012.22 473.595 2071.87 410.485 2136.61 348.289 2150.78 175.674 2255.5 105.054 1944.47 76.7316 1820.08 308.297 1113.15 308.297 1113.15 308.297 1113.15 398.942 968.212 383.125 867.14 323.645 815.654 323.704 749.828 309.543 687.631 357.578 611.273 531.535 800.638 531.535 800.638L655.928 772.316C655.928 772.316 676.232 637.375 768.935 550.323 831.132 536.162 873.616 722.751 873.616 722.751" fill="#6CADD5" fill-rule="evenodd"/><path d="M315.661 1863.81C319.571 1880.98 308.818 1898.08 291.643 1901.99 274.469 1905.9 257.375 1895.15 253.465 1877.97 249.555 1860.8 260.307 1843.7 277.482 1839.79 294.657 1835.88 311.751 1846.64 315.661 1863.81Z" fill="#6CADD5" fill-rule="evenodd"/><path d="M515.501 1180.46C499.899 1230.94 473.604 1267.66 456.778 1262.46 439.952 1257.26 438.956 1212.11 454.559 1161.62 470.161 1111.14 496.455 1074.43 513.282 1079.63 530.108 1084.83 531.104 1129.97 515.501 1180.46Z" fill="#6CADD5" fill-rule="evenodd"/><path d="M1037.88 711.518 1030.43 808.076 1063.65 810.324C1273.73 827.913 1450.32 885.182 1650.59 1118.28 1850.86 1351.37 1998.73 1713.5 2108.4 2338.81L2112.37 2370.62 2252.31 2338.75 2248.34 2306.95C2136.97 1674.17 1954.99 1271.4 1744 1025.7 1533.01 780 1289.85 694.709 1071.02 710.516L1037.88 711.518Z" fill="#6CADD5" fill-rule="evenodd"/></g></g></g></g></svg>